<svg width="80" height="60" viewBox="0 0 80 60" fill="none" xmlns="http://www.w3.org/2000/svg">
<rect width="80" height="59.6491" rx="6" fill="#2C2C2C"/>
<g clip-path="url(#clip0_2_6)">
<path d="M19.6325 17.5607C18.719 16.6469 18.719 15.1659 19.6325 14.2522C20.5461 13.3392 22.0271 13.3392 22.9408 14.2522L36.9737 28.2895C37.8874 29.2032 37.8874 30.6798 36.9737 31.5936L22.9408 45.6287C22.0271 46.5424 20.5461 46.5424 19.6325 45.6287C18.719 44.7149 18.719 43.2383 19.6325 42.3246L32.0102 29.9415L19.6325 17.5607ZM58.7135 41.6374C60.0073 41.6374 61.0526 42.6828 61.0526 43.9766C61.0526 45.2705 60.0073 46.3158 58.7135 46.3158H37.6608C36.367 46.3158 35.3216 45.2705 35.3216 43.9766C35.3216 42.6828 36.367 41.6374 37.6608 41.6374H58.7135Z" fill="white"/>
</g>
<defs>
<clipPath id="clip0_2_6">
<rect width="42.1053" height="37.4269" fill="white" transform="translate(18.9474 11.2281)"/>
</clipPath>
</defs>
</svg>
